<?xml version="1.0" standalone="no"?>
<!DOCTYPE svg PUBLIC "-//W3C//DTD SVG 20010904//EN"
 "http://www.w3.org/TR/2001/REC-SVG-20010904/DTD/svg10.dtd">
<svg version="1.0" xmlns="http://www.w3.org/2000/svg"
 width="1080.000000pt" height="1080.000000pt" viewBox="0 0 1080.000000 1080.000000"
 preserveAspectRatio="xMidYMid meet">
<metadata>
Created by potrace 1.14, written by Peter Selinger 2001-2017
</metadata>
<g transform="translate(0.000000,1080.000000) scale(0.100000,-0.100000)"
fill="#000000" stroke="none">
<path d="M6198 9585 c-2 -1 -27 -5 -56 -9 -258 -31 -434 -85 -460 -141 -24
-53 -10 -101 52 -180 28 -36 31 -46 30 -110 0 -56 -9 -97 -48 -210 -69 -205
-127 -406 -262 -905 -95 -353 -268 -778 -403 -993 -23 -35 -41 -67 -41 -71 0
-3 266 -6 590 -6 465 0 590 3 590 13 0 16 -19 143 -27 182 -25 132 -1 253 134
655 92 276 125 345 196 412 28 25 42 30 139 44 52 7 46 15 67 -85 14 -64 11
-74 -116 -405 -94 -246 -121 -339 -127 -441 -13 -219 98 -364 323 -420 99 -25
124 -28 226 -28 255 1 467 118 562 309 32 67 35 78 27 116 -9 41 -11 43 -44
42 -19 0 -48 -3 -65 -7 -16 -4 -42 -9 -57 -12 -29 -7 -29 -2 -13 71 3 12 7 39
11 60 3 21 37 138 76 259 131 411 158 516 159 620 1 118 -7 158 -54 254 -107
217 -380 293 -686 191 -36 -12 -130 -52 -210 -90 -80 -37 -147 -67 -149 -65
-2 2 17 68 41 147 125 397 132 424 131 533 -2 118 -60 203 -170 246 -51 20
-79 23 -211 25 -83 1 -153 1 -155 -1z"/>
<path d="M4025 8829 c-60 -9 -138 -24 -173 -33 -531 -140 -909 -529 -984
-1011 -38 -245 9 -444 142 -604 114 -137 318 -237 545 -266 28 -4 70 -11 95
-15 51 -10 397 -6 450 4 325 66 562 187 758 388 154 158 277 378 323 577 6 25
13 55 16 66 2 11 7 75 10 141 7 150 -11 239 -70 357 -29 58 -60 101 -106 147
-88 86 -95 92 -204 145 -105 51 -238 84 -437 110 -147 19 -215 18 -365 -6z
m240 -316 c33 -16 35 -19 37 -72 5 -167 2 -194 -46 -356 -117 -394 -224 -695
-264 -737 -13 -15 -60 -49 -102 -76 l-77 -49 -28 86 c-16 47 -28 101 -28 121
2 84 232 810 285 900 24 41 167 199 180 200 4 0 23 -8 43 -17z"/>
<path d="M2835 6729 c-79 -13 -157 -30 -190 -40 -16 -5 -78 -22 -136 -39 -204
-57 -259 -96 -259 -185 0 -44 20 -91 73 -166 59 -85 57 -113 -28 -364 -24 -71
-78 -263 -120 -425 -42 -162 -78 -302 -82 -310 -3 -8 -8 -23 -9 -32 -8 -40
-80 -221 -125 -313 -57 -119 -112 -205 -191 -301 -32 -39 -58 -73 -58 -76 0
-3 48 -9 108 -13 59 -4 116 -9 127 -11 11 -1 65 -6 120 -9 55 -4 113 -8 129
-10 170 -21 654 -22 762 -1 11 2 45 7 77 11 31 4 59 11 62 15 2 3 7 54 10 111
12 206 15 245 20 314 3 39 10 93 15 120 5 28 12 62 14 76 8 50 57 223 106 374
111 342 155 439 230 516 38 38 55 47 105 57 33 7 76 13 95 15 l34 2 22 -90 21
-90 -22 -65 c-13 -36 -27 -76 -33 -90 -6 -14 -34 -86 -62 -160 -29 -74 -58
-148 -65 -165 -23 -52 -103 -291 -110 -327 -32 -176 -25 -277 26 -386 86 -181
283 -276 569 -276 297 1 485 74 625 244 11 14 49 63 84 110 36 47 84 109 108
138 l45 52 -176 0 c-103 0 -176 4 -176 9 0 5 5 22 11 38 6 15 12 35 14 43 11
46 81 273 197 645 76 244 102 274 301 344 63 22 89 27 92 18 10 -31 22 -156
20 -195 -3 -40 -26 -123 -45 -167 -40 -88 -142 -354 -158 -410 -37 -125 -50
-230 -47 -374 3 -140 28 -229 85 -307 108 -145 254 -205 485 -199 360 10 617
122 714 312 35 70 53 150 46 204 l-7 49 -56 -5 c-32 -3 -72 -8 -89 -10 -26 -4
-36 0 -47 18 -13 20 -11 34 25 157 22 74 42 142 44 150 1 8 21 76 43 150 50
168 109 377 116 410 3 14 15 61 26 105 80 314 -13 592 -242 730 -173 103 -411
105 -646 5 -96 -41 -167 -83 -362 -215 -91 -61 -170 -115 -177 -119 -7 -4 -35
29 -76 91 -102 153 -201 239 -342 293 -69 26 -239 37 -315 19 -25 -6 -53 -13
-62 -15 -10 -2 -26 -6 -35 -8 -61 -14 -228 -94 -321 -153 -55 -36 -164 -115
-229 -168 l-32 -26 -16 37 c-26 63 -104 171 -159 222 -95 86 -194 120 -351
119 -55 0 -122 -4 -150 -8z"/>
<path d="M7287 6725 c-32 -7 -61 -13 -65 -14 -157 -35 -316 -140 -427 -281
-67 -86 -133 -265 -138 -373 l-2 -47 74 -63 c125 -104 151 -156 197 -392 4
-22 8 -42 9 -45 1 -3 5 -27 10 -55 4 -27 9 -59 11 -70 2 -11 11 -65 20 -120 8
-55 17 -111 19 -125 3 -14 7 -50 10 -80 4 -30 8 -62 10 -70 2 -8 7 -42 10 -75
12 -115 45 -238 84 -320 77 -159 183 -244 386 -310 l70 -23 -75 -35 c-41 -19
-97 -45 -125 -57 -27 -13 -111 -51 -186 -85 l-136 -62 -26 61 c-15 34 -27 65
-27 69 0 18 -91 190 -124 235 -78 106 -169 156 -291 159 -122 3 -213 -37 -310
-135 -47 -48 -102 -136 -109 -174 -2 -15 -8 -33 -11 -38 -12 -19 -8 -156 5
-197 53 -164 161 -260 364 -322 37 -12 78 -23 90 -25 11 -3 32 -8 46 -11 14
-3 39 -8 55 -10 17 -3 41 -7 55 -10 46 -11 244 -13 320 -3 41 5 107 16 145 24
39 8 80 17 92 20 59 12 233 80 330 128 215 109 430 270 643 486 115 116 137
140 241 260 269 311 489 702 597 1060 22 73 70 280 76 332 31 239 27 392 -13
499 -75 196 -220 301 -407 294 -180 -7 -317 -113 -385 -297 -30 -82 -34 -112
-33 -268 1 -174 18 -253 93 -422 27 -62 57 -139 66 -171 17 -60 23 -176 10
-218 -18 -62 -63 -135 -114 -188 -56 -58 -201 -161 -226 -161 -7 0 -15 10 -18
23 -3 12 -14 56 -25 97 -11 41 -23 102 -27 135 -3 32 -8 62 -10 65 -2 3 -6 35
-9 71 -4 36 -8 76 -11 90 -2 13 -6 47 -10 74 -3 28 -8 64 -10 80 -3 17 -14
100 -26 185 -28 210 -27 201 -33 235 -2 17 -7 48 -11 70 -3 22 -7 47 -10 55
-2 8 -6 26 -9 40 -24 143 -105 301 -197 385 -98 90 -196 127 -344 130 -55 1
-126 -4 -158 -10z"/>
<path d="M1847 4304 c-1 -1 -36 -5 -77 -8 -305 -26 -521 -134 -651 -323 -63
-91 -133 -289 -154 -434 -13 -93 -17 -114 -21 -121 -3 -5 -98 -22 -111 -20
-14 2 -150 -40 -168 -52 -48 -32 -28 -108 70 -261 52 -83 76 -158 76 -244 0
-64 -8 -100 -49 -226 -27 -83 -53 -166 -57 -185 -18 -88 -108 -407 -141 -501
-85 -244 -204 -442 -361 -596 -29 -29 -49 -53 -45 -54 4 0 14 -2 24 -4 9 -2
94 -7 190 -11 318 -16 830 -10 948 11 14 2 48 7 75 10 122 13 208 32 201 44
-15 24 -24 325 -14 427 9 81 74 332 125 484 8 25 16 53 18 62 2 9 26 88 54
175 27 87 64 205 81 263 43 144 57 178 92 222 41 53 93 77 180 84 40 4 84 12
98 20 14 7 62 50 107 97 80 81 82 84 60 95 -12 6 -40 23 -62 37 -124 77 -157
87 -328 100 -135 10 -179 59 -180 199 -1 152 28 262 86 325 50 54 187 115 209
93 6 -6 12 -55 14 -110 3 -117 14 -163 53 -223 62 -92 177 -138 361 -144 233
-8 358 44 426 178 47 91 50 214 9 301 -49 104 -197 201 -352 231 -90 17 -204
36 -243 40 -25 3 -67 8 -95 11 -46 6 -442 13 -448 8z"/>
<path d="M10208 4295 c-2 -1 -41 -5 -88 -9 -138 -11 -177 -16 -398 -58 -155
-29 -165 -32 -196 -64 -18 -18 -44 -55 -59 -82 l-26 -48 29 -35 c55 -67 92
-166 84 -225 -10 -74 -17 -106 -36 -159 -12 -33 -24 -64 -28 -70 -4 -5 -22
-55 -41 -110 -19 -55 -34 -101 -35 -103 -1 -1 -55 16 -121 38 -110 37 -154 48
-268 68 -53 9 -319 9 -370 -1 -241 -45 -458 -201 -617 -443 -79 -121 -131
-225 -177 -359 -37 -108 -87 -309 -106 -422 -3 -18 -8 -48 -11 -65 -12 -63
-14 -84 -15 -174 -2 -210 62 -376 196 -509 183 -184 459 -268 685 -211 113 28
275 118 362 201 27 25 28 25 55 8 16 -10 30 -20 33 -24 3 -3 19 -14 35 -23 17
-9 48 -28 70 -41 22 -14 49 -29 60 -34 11 -5 41 -18 65 -29 57 -26 125 -48
170 -56 19 -3 46 -8 60 -11 121 -25 306 12 433 87 206 121 292 234 287 377 0
25 -1 54 -1 65 0 16 -6 17 -59 12 -97 -11 -144 -17 -159 -22 -8 -3 -11 1 -8
10 3 8 17 59 31 113 14 54 86 298 161 543 75 245 138 452 140 460 2 8 18 60
35 115 49 159 131 429 135 445 2 8 27 92 55 185 68 225 80 277 80 357 0 135
-73 244 -189 283 -44 14 -241 30 -253 20z m-905 -1274 c14 -24 9 -45 -80 -331
-101 -331 -217 -679 -238 -720 -19 -37 -42 -61 -119 -124 l-69 -56 -25 42
c-64 113 -84 160 -84 196 2 82 152 580 246 812 41 104 68 133 165 176 42 19
94 43 116 53 40 19 40 19 56 -2 9 -11 24 -32 32 -46z"/>
<path d="M3627 3444 c-1 -1 -27 -5 -57 -9 -30 -3 -62 -8 -70 -10 -8 -2 -31 -7
-50 -10 -226 -36 -505 -157 -706 -306 -66 -48 -201 -180 -255 -249 -205 -258
-320 -634 -284 -925 34 -279 228 -517 508 -626 71 -27 215 -62 303 -73 224
-28 395 -28 559 -1 368 62 684 216 914 444 130 129 180 194 254 331 63 115
121 289 133 397 3 32 8 61 10 65 7 11 5 245 -2 288 -18 117 -79 267 -136 336
-38 47 -109 114 -154 145 -78 53 -260 134 -347 154 -86 19 -117 25 -152 31
-22 3 -65 9 -95 14 -47 7 -366 11 -373 4z m207 -463 c21 -44 38 -92 38 -108 1
-50 -209 -717 -326 -1032 -25 -69 -55 -133 -66 -143 -16 -15 -131 -77 -186
-101 -5 -2 -37 52 -91 155 l-25 47 45 123 c25 68 84 231 132 363 105 290 201
545 226 602 11 23 19 47 19 52 0 6 12 18 28 28 15 10 29 20 32 23 6 6 122 68
131 69 3 1 23 -35 43 -78z"/>
<path d="M6310 3439 c-443 -57 -877 -312 -1123 -660 -59 -84 -146 -251 -162
-314 -2 -5 -10 -30 -18 -55 -64 -194 -68 -428 -11 -604 45 -139 155 -298 264
-382 125 -97 319 -166 530 -190 25 -2 79 -8 120 -13 118 -13 354 -5 446 14 12
3 38 7 60 11 74 12 190 45 294 84 517 194 870 626 935 1145 7 55 7 233 0 270
-17 91 -23 114 -41 168 -52 157 -191 314 -346 393 -47 24 -171 68 -218 78
-167 34 -221 45 -255 51 -63 10 -403 14 -475 4z m282 -457 c43 -105 43 -117 8
-233 -40 -131 -139 -449 -147 -469 -3 -8 -38 -109 -78 -225 -100 -290 -124
-351 -143 -368 -10 -8 -51 -33 -92 -55 l-75 -41 -61 117 c-46 88 -59 122 -53
137 5 11 67 182 138 380 133 373 250 677 273 714 12 20 170 110 193 111 6 0
22 -31 37 -68z"/>
</g>
</svg>
